<?xml version="1.0" encoding="UTF-8" standalone="no"?>
<!DOCTYPE svg PUBLIC "-//W3C//DTD SVG 1.1//EN" "http://www.w3.org/Graphics/SVG/1.1/DTD/svg11.dtd">
<svg width="100%" height="100%" viewBox="0 0 311 301" version="1.1" xmlns="http://www.w3.org/2000/svg" xmlns:xlink="http://www.w3.org/1999/xlink" xml:space="preserve" xmlns:serif="http://www.serif.com/" style="fill-rule:evenodd;clip-rule:evenodd;stroke-linejoin:round;stroke-miterlimit:2;">
    <g id="Artboard1" transform="matrix(0.370281,0,0,0.907848,-93.3353,-266.703)">
        <rect x="252.066" y="293.775" width="839.477" height="331.439" style="fill:none;"/>
        <g transform="matrix(2.25195,0,0,1.10151,-338.509,-53.0222)">
            <g transform="matrix(0.669946,0,0,0.558636,281.153,313.741)">
                <path d="M464,326C462,322 460.833,316.833 460.5,310.5C460.167,304.167 459.667,300.667 459,300C458.333,299.333 457.333,301.667 456,307C454.667,314.333 452.167,320.833 448.5,326.5C444.833,332.167 440.667,336 436,338C433.333,339.333 430,340 426,340C422,340 419.333,339.833 418,339.5C416.667,339.167 414.667,338 412,336C408.667,332.667 406.667,331 406,331C405.333,331 404.167,329.167 402.5,325.5C400.833,321.833 400,318.667 400,316C400,313.333 399.167,310.667 397.5,308C395.833,305.333 395,302.5 395,299.5C395,296.5 395.667,294 397,292C398.333,290 399.167,287.833 399.5,285.5C399.833,283.167 400.333,281.667 401,281C401.667,280.333 402.833,280 404.5,280C406.167,280 407.167,279.5 407.5,278.5L410,271C410.667,265 412,261 414,259C416,257 416.833,254.667 416.5,252C416.167,249.333 415.667,247.667 415,247C414.333,246.333 413.333,246 412,246C408,246 405.667,244.333 405,241C404.333,237.667 405.667,235.333 409,234C412.333,232.667 414.5,230.667 415.5,228C416.5,225.333 416.833,223.833 416.5,223.5L414,221C406.667,215.667 402.333,210 401,204C399,196 400,188.833 404,182.5C408,176.167 414,172.333 422,171C426,170.333 428.333,169.667 429,169C429.667,168.333 430,167.167 430,165.5C430,163.833 429.667,162.667 429,162C428.333,161.333 427,160.833 425,160.5C423,160.167 421.833,158.333 421.5,155C421.167,151.667 422,149.667 424,149C426,148.333 428.833,146.5 432.5,143.5C436.167,140.5 439.333,138.833 442,138.5C444.667,138.167 446.167,137.667 446.5,137C446.833,136.333 446.833,135 446.5,133C446.167,131 447,128.333 449,125C453,117 451.667,114.667 445,118C442.333,118.667 441,119.667 441,121C441,122.333 439.833,124 437.5,126C435.167,128 433.5,129.167 432.5,129.5C431.5,129.833 429.167,129.833 425.5,129.5C421.833,129.167 419.5,129.5 418.5,130.5C417.5,131.5 417.333,133.167 418,135.5C418.667,137.833 418.833,140.167 418.5,142.5C418.167,144.833 417.333,146 416,146C414.667,146 413.667,147.167 413,149.5C412.333,151.833 412.333,153.667 413,155C415,158.333 413.333,160 408,160C405.333,160 403.5,160.667 402.5,162C401.5,163.333 400.5,163.833 399.5,163.5C398.5,163.167 396.833,161.833 394.5,159.5C392.167,157.167 390.5,155.833 389.5,155.5C388.5,155.167 385.667,155 381,155C374.333,155.667 370.5,155.5 369.5,154.5C368.5,153.5 367,153 365,153C363,153 362.333,153.667 363,155C363.667,156.333 363.167,158.5 361.5,161.5C359.833,164.5 358.167,166.5 356.5,167.5C354.833,168.5 352.5,169 349.5,169C346.5,169 343.833,167.833 341.5,165.5C339.167,163.167 338,160.833 338,158.5C338,156.167 337,153.833 335,151.5C333,149.167 332.5,147.167 333.5,145.5C334.5,143.833 334.833,142.167 334.5,140.5C334.167,138.833 333,137.5 331,136.5C329,135.5 327.5,135.333 326.5,136C325.5,136.667 325.5,138 326.5,140C327.5,142 327.333,144 326,146C324.667,148 323.167,149 321.5,149C319.833,149 318,149.667 316,151C311.333,154.333 307,154.333 303,151C300.333,149.667 297,149 293,149C289,149 286.5,148.833 285.5,148.5C284.5,148.167 283,146.833 281,144.5C279,142.167 277.833,140.333 277.5,139C277.167,137.667 277,134.333 277,129C277,123.667 277.167,120 277.5,118C277.833,116 278.667,114 280,112C284,105.333 289.5,101.167 296.5,99.5C303.5,97.833 310.667,98.667 318,102C319.333,102.667 320.5,103 321.5,103C322.5,103 324.333,102.5 327,101.5C329.667,100.5 332.833,99.833 336.5,99.5C340.167,99.167 343,99.333 345,100C347,100.667 349,100.167 351,98.5C353,96.833 356.5,96.167 361.5,96.5C366.5,96.833 370.333,96 373,94C375.667,92 378,88.5 380,83.5C382,78.5 385.333,73.333 390,68C402,56 406.333,44.333 403,33C401.667,29 400.833,26.667 400.5,26C400.167,25.333 399.333,26.5 398,29.5C396.667,32.5 394.167,35.833 390.5,39.5C386.833,43.167 383.667,45.667 381,47C374.333,50.333 368.333,50.833 363,48.5C357.667,46.167 351.333,48.333 344,55C339.333,58.333 335.5,60.5 332.5,61.5C329.5,62.5 325.833,62.833 321.5,62.5C317.167,62.167 313.833,61.167 311.5,59.5C309.167,57.833 307.5,57 306.5,57C305.5,57 303.5,58.5 300.5,61.5C297.5,64.5 295.667,67.333 295,70C291.667,77.333 287,82.667 281,86C275,89.333 268.333,91.5 261,92.5C253.667,93.5 247.5,93 242.5,91C237.5,89 234,88.167 232,88.5C230,88.833 227.5,90.5 224.5,93.5C221.5,96.5 220,99 220,101C220,103 219.167,106.333 217.5,111C215.833,115.667 213.833,119.333 211.5,122C209.167,124.667 207.333,127.5 206,130.5C204.667,133.5 203,135.667 201,137C199,138.333 195.667,139.333 191,140C179.667,140.667 171.333,137.667 166,131C163.333,127 162.5,124.833 163.5,124.5C164.5,124.167 165.667,122.667 167,120C168.333,117.333 170.5,115.5 173.5,114.5C176.5,113.5 178,111.667 178,109C178,106.333 177.5,104.667 176.5,104C175.5,103.333 173.667,103.167 171,103.5C168.333,103.833 166.333,103.833 165,103.5C163.667,103.167 162.167,102.167 160.5,100.5C158.833,98.833 157.667,97.5 157,96.5C156.333,95.5 156,93.5 156,90.5C156,87.5 155.333,85 154,83L151,80L149,83C148.333,84.333 146.833,85.667 144.5,87C142.167,88.333 140.667,90.5 140,93.5C139.333,96.5 137,100.5 133,105.5C129,110.5 127,113.833 127,115.5C127,117.167 125.667,119 123,121C119,124.333 114,124.667 108,122C105.333,121.333 105,124.667 107,132C107.667,135.333 109.333,137.333 112,138C114.667,138.667 116.833,140.833 118.5,144.5C120.167,148.167 121,150.833 121,152.5C121,154.167 120.667,156 120,158C119.333,160 119.333,161.667 120,163C120.667,164.333 122.167,165.667 124.5,167C126.833,168.333 128,169.5 128,170.5C128,171.5 126.833,173.167 124.5,175.5C122.167,177.833 119.333,179 116,179C112.667,179 109.833,178.167 107.5,176.5C105.167,174.833 103.833,174 103.5,174C103.167,174 102.5,175.667 101.5,179C100.5,182.333 99,185 97,187C91,193 86.5,196.5 83.5,197.5C80.5,198.5 76.833,198.5 72.5,197.5C68.167,196.5 64.5,195 61.5,193C58.5,191 56.667,190 56,190C55.333,190 53.667,189 51,187C45.667,182.333 44.333,184 47,192C48.333,196.667 48.667,200.333 48,203C46,209.667 45.667,213.333 47,214C48.333,214.667 50.667,214.667 54,214C60.667,212 65.667,213.667 69,219C71.667,223 72.167,227 70.5,231C68.833,235 65.333,238.333 60,241C56.667,243 54.667,244.667 54,246C53.333,247.333 53.333,249.667 54,253C54,255 54.333,256.333 55,257C55.667,257.667 57,258 59,258C63,258.667 66,261.167 68,265.5C70,269.833 70,273.333 68,276C67.333,277.333 67.667,279 69,281C73,287 74.333,296.333 73,309C72.333,315 71,319.833 69,323.5C67,327.167 64.333,330.333 61,333L51,340C48.333,342 45.667,343.167 43,343.5C40.333,343.833 38,343.5 36,342.5C34,341.5 33,341.667 33,343C33,347 34.667,351.833 38,357.5C41.333,363.167 45.667,368.667 51,374C54.333,377.333 56.667,379.333 58,380C59.333,380.667 61.167,381 63.5,381C65.833,381 69,382.167 73,384.5C77,386.833 79.667,389.333 81,392C84.333,397.333 86.333,406 87,418C87,424.667 86.5,429 85.5,431C84.5,433 82,435 78,437C74,439 72,440.333 72,441C72,441.667 75.833,442.833 83.5,444.5C91.167,446.167 95.833,446.833 97.5,446.5C99.167,446.167 103.333,446.667 110,448C124,450 136,455.667 146,465C153.333,471.667 157.333,478.333 158,485C158.667,488.333 159.333,490.333 160,491C160.667,491.667 162.333,492.333 165,493C167.667,493.667 170.5,493 173.5,491C176.5,489 180.833,487 186.5,485C192.167,483 196.833,482.167 200.5,482.5C204.167,482.833 208,484.333 212,487C216,489.667 220,491.5 224,492.5C228,493.5 231.5,493.667 234.5,493C237.5,492.333 240,489.667 242,485C245.333,478.333 250,473.833 256,471.5C262,469.167 268.667,469.333 276,472C284.667,474.667 290.667,479 294,485C296,487.667 299.167,490.167 303.5,492.5C307.833,494.833 312.333,496 317,496L324,496L325,489C325,483.667 325.667,479.833 327,477.5C328.333,475.167 331.5,471.333 336.5,466C341.5,460.667 346,456.667 350,454C358,448 365.333,445 372,445C376,445 378.667,444.667 380,444C382.667,442.667 382.667,437.333 380,428C377.333,420 377.667,412.333 381,405C383,401.667 386.167,398.667 390.5,396C394.833,393.333 398.833,391.833 402.5,391.5C406.167,391.167 409,390.167 411,388.5C413,386.833 414.667,384 416,380C418,372.667 423,367 431,363C435.667,361 439.667,358.167 443,354.5C446.333,350.833 449.667,348.333 453,347C456.333,345.667 459.5,343.667 462.5,341C465.5,338.333 467,336.167 467,334.5C467,332.833 466,330 464,326ZM235,433C212.333,433 191.667,427.5 173,416.5C154.333,405.5 139.333,390.5 128,371.5C116.667,352.5 111,331.833 111,309.5C111,287.167 116.667,266.5 128,247.5C139.333,228.5 154.333,213.333 173,202C191.667,190.667 212.333,185 235,185C257.667,185 278.5,190.667 297.5,202C316.5,213.333 331.5,228.5 342.5,247.5C353.5,266.5 359,287.167 359,309.5C359,331.833 353.5,352.5 342.5,371.5C331.5,390.5 316.5,405.5 297.5,416.5C278.5,427.5 257.667,433 235,433Z" style="fill:rgb(121,123,206);fill-rule:nonzero;"/>
            </g>
            <g transform="matrix(0.832164,0,0,0.832164,-270.119,78.6557)">
                <g transform="matrix(1.15654,0,0,0.462904,360.03,466.273)">
                    <text x="366.889px" y="183.741px" style="font-family:'OPTIEngeEtienne';font-weight:500;font-size:96px;fill:rgb(121,123,206);">M<tspan x="405.289px 429.673px 456.841px " y="183.741px 183.741px 183.741px ">ODS</tspan></text>
                </g>
                <g transform="matrix(1.91347,0,0,1,159.32,338.664)">
                    <text x="326.867px" y="170.26px" style="font-family:'OPTIEngeEtienne';font-weight:500;font-size:96px;fill:rgb(121,123,206);">X<tspan x="354.515px 370.931px " y="170.26px 170.26px ">IV</tspan></text>
                </g>
            </g>
        </g>
        <g transform="matrix(2.83301,0,0,1.15549,227.626,270.612)">
            <circle cx="156.704" cy="194.174" r="65.957" style="fill-opacity:0;"/>
        </g>
    </g>
</svg>
