<?xml version="1.0" encoding="UTF-8" standalone="no"?>
<!DOCTYPE svg PUBLIC "-//W3C//DTD SVG 1.1//EN" "http://www.w3.org/Graphics/SVG/1.1/DTD/svg11.dtd">
<svg width="100%" height="100%" viewBox="0 0 2262 765" version="1.1" xmlns="http://www.w3.org/2000/svg" xmlns:xlink="http://www.w3.org/1999/xlink" xml:space="preserve" xmlns:serif="http://www.serif.com/" style="fill-rule:evenodd;clip-rule:evenodd;stroke-linejoin:round;stroke-miterlimit:2;">
    <g>
        <path d="M49,737.8L49,193.4L79,164.8L79,434.4C79,582.7 79.2,704 79.5,704C79.7,704 87.7,702.4 97.2,700.5C134.9,693 173.4,687.3 205,684.5C231.8,682.2 232.8,682.6 211.5,687.5C160.9,698.9 103.7,716.2 62.3,732.6L49,737.8Z" style="fill-rule:nonzero;"/>
        <path d="M1173.5,732.6C1134.6,716.9 1075.9,699.1 1024.5,687.4C1003.3,682.6 1004.2,682.2 1031,684.5C1062.6,687.3 1101.1,693 1138.8,700.5C1148.3,702.4 1156.3,704 1156.5,704C1156.8,704 1157,659 1157,604L1157,504L1187,504L1187,621C1187,685.4 1186.9,738 1186.8,737.9C1186.6,737.8 1180.7,735.4 1173.5,732.6Z" style="fill-rule:nonzero;"/>
        <path d="M592.2,708.4C568.5,692.6 529.2,674.2 488.4,659.7L473.7,654.5L441.7,580.5C417.2,523.9 409.6,505.3 409.3,501.4C408.9,497.6 409.4,494.9 411.3,490.4C412.6,487.2 426.8,453.5 442.9,415.7C458.9,377.9 472,346.7 472,346.5C472,346.2 465.1,346 456.8,346L441.5,346L420.6,400.3C409,430.1 398.9,456.4 398.1,458.8C396.6,462.7 396.2,463 393,463L389.5,463L367.5,405.4C355.5,373.8 345.3,347.5 345,346.9C344.6,346.3 338.4,346.1 329.2,346.2L314.1,346.5L330.8,386C340.1,407.7 354.7,442.2 363.3,462.5C372,483.1 379,500.9 379,502.5C379,504.2 374.2,516.6 368.4,530C362.6,543.5 351.8,568.7 344.3,586C336.9,603.3 330.4,617.9 330,618.4C329.5,618.9 321.9,618.3 312.3,617.1C281.8,613.2 263.1,612 213,610.9C177.3,610.1 163.3,609.5 162.8,608.7C162.4,608 162,481.6 162,327.8L162,48L165.3,48C190.4,48.1 255.5,53.3 297,58.6C390.9,70.5 452.3,86.3 507.7,113C542.2,129.6 567.3,147.1 592.1,172C603.5,183.4 603.8,183.8 610.6,197.8C614.4,205.6 617.7,212 618,212C618.3,212 621.7,205.6 625.5,197.8C632.3,183.8 632.7,183.3 644,171.9C678.4,137.3 717.8,113.9 777.2,92.9C819.2,78.1 869.9,67.3 939,58.6C980.5,53.3 1045.6,48.1 1070.8,48L1074,48L1074,327.8C1074,481.6 1073.6,608 1073.2,608.7C1072.7,609.5 1058.9,610.1 1023.5,610.9C972.6,612 952.7,613.3 920.5,617.5C903.1,619.8 876,624.2 870.3,625.6C868.3,626.1 868,625.9 868,623.4C868,621.8 869.8,611.6 872,600.7C883.7,543.2 923,347.5 923,346.8C923,346.4 915.9,346 907.2,346L891.4,346L884.7,383.8C878.3,419.8 876.3,430.5 867.1,482C864.9,494.4 859,527.2 854,555C849.1,582.8 844.8,606.5 844.5,607.8C844.1,609.5 843.3,610 840.5,610C838.6,610 837,609.6 837,609.2C837,608.4 833.1,586.5 825,541.5C815.2,487.4 810.5,461.1 798.6,394C794.4,370.6 790.7,350.3 790.4,348.8L789.8,346L773.9,346C759.1,346 757.9,346.1 758.4,347.8C758.7,348.7 760.9,359.6 763.4,372C772.2,415.8 810.9,607.7 813.9,622.4C815.6,630.7 816.7,637.6 816.5,637.9C816.2,638.1 809.1,640.3 800.8,642.7C736.5,661 677.8,685.7 642.7,709.1C637.8,712.4 633.7,715 633.4,715C633.2,715 633,632 633,530.5L633,346L602,346L601.8,530.3L601.5,714.5L592.2,708.4ZM620.9,307.2C625.8,291.5 633,282 644.8,275.7L651.1,272.3L647.1,271C641.4,269.1 632.9,262.1 628.6,255.6C624.9,250.1 621.2,241 618.9,232L617.7,227.5L615.5,235.5C614.3,239.9 611.8,246.4 610,249.9C606,257.8 596.9,267.2 590.1,270.4L585.1,272.7L590.2,275.1C601.8,280.5 612.6,295.5 616.1,310.9C616.8,314.2 617.5,317 617.6,317C617.7,317 619.2,312.6 620.9,307.2Z" style="fill-rule:nonzero;"/>
        <path d="M618,212C618.3,212 621.7,205.6 625.5,197.8C632.3,183.8 632.7,183.3 644,171.9C678.4,137.3 717.8,113.9 777.2,92.9C819.2,78.1 869.9,67.3 939,58.6C980.5,53.3 1045.6,48.1 1070.8,48L1074,48L1074,327.8C1074,481.6 1073.6,608 1073.2,608.7C1072.7,609.5 1058.9,610.1 1023.5,610.9C972.6,612 952.7,613.3 920.5,617.5C903.1,619.8 876,624.2 870.3,625.6C868.3,626.1 868,625.9 868,623.4C868,621.8 869.8,611.6 872,600.7C883.7,543.2 923,347.5 923,346.8C923,346.4 915.9,346 907.2,346L891.4,346L884.7,383.8C878.3,419.8 876.3,430.5 867.1,482C864.9,494.4 859,527.2 854,555C849.1,582.8 844.8,606.5 844.5,607.8C844.1,609.5 843.3,610 840.5,610C838.6,610 837,609.6 837,609.2C837,608.4 833.1,586.5 825,541.5C815.2,487.4 810.5,461.1 798.6,394C794.4,370.6 790.7,350.3 790.4,348.8L789.8,346L773.9,346C759.1,346 757.9,346.1 758.4,347.8C758.7,348.7 760.9,359.6 763.4,372C772.2,415.8 810.9,607.7 813.9,622.4C815.6,630.7 816.7,637.6 816.5,637.9C816.2,638.1 809.1,640.3 800.8,642.7C736.5,661 677.8,685.7 642.7,709.1C637.8,712.4 633.7,715 633.4,715C633.2,715 633,632 633,530.5L633,346L617.5,346M617.612,316.548C617.612,316.548 619.2,312.6 620.9,307.2C625.8,291.5 633,282 644.8,275.7L651.1,272.3L647.1,271C641.4,269.1 632.9,262.1 628.6,255.6C624.9,250.1 621.2,241 618.9,232L617.972,229.081" style="fill:url(#_Linear1);fill-rule:nonzero;"/>
        <path d="M445,681.4C434.9,678.6 402.7,671.8 388.5,669.6C378,668 344.7,663.9 322,661.5C281.8,657.3 233.6,657.5 187,662.1C162.3,664.5 119.1,671.7 105.1,675.7C100.6,677 99.6,677 98.9,675.9C98.4,675.1 98,554.2 98,406.2L98,137.8L118.2,115.7C129.3,103.5 138.8,93 139.4,92.3C140.2,91.4 140.5,120 140.5,193.3C140.5,249.5 140.6,373 140.8,467.6L141,639.8L188.3,640.3C244.9,640.9 268.4,642.7 321,650.1C374.5,657.7 414,666.8 442,678.1C458.8,684.9 459.4,685.5 445,681.4Z" style="fill-rule:nonzero;"/>
        <path d="M781,683.7C781.3,683.4 787.1,680.9 794,678.1C822,666.8 861.5,657.7 915,650.1C967.5,642.7 991.1,640.9 1047.6,640.3L1094.7,639.8L1095.4,367.1C1095.8,217.1 1095.8,93.5 1095.4,92.4C1094.5,90 1093.1,88.5 1117.8,115.7L1138,137.8L1138,304L2221.5,304L2124.5,401L2221.5,498L1138,498L1138,586.3C1138,634.8 1137.6,675.1 1137.1,675.9C1136.4,677 1135.4,677 1130.9,675.7C1116.9,671.7 1073.7,664.5 1049,662.1C1002.4,657.5 954.2,657.3 914,661.5C850.6,668.2 817.1,673.9 782.5,683.7C781.4,684 780.7,684 781,683.7ZM1258,454L1258,356L1278,356L1278,350L1231,350L1231,356L1252,356L1252,454L1258,454ZM1299,454L1299,406L1331,406L1331,454L1337,454L1337,350L1331,350L1331,400L1299,400L1299,350L1293,350L1293,454L1299,454ZM1399.8,451.3L1399.5,448.5L1382.3,448.2L1365,448L1365,405L1396,405L1396,400L1365,400L1365,356L1382.3,355.8L1399.5,355.5L1399.8,352.8L1400.1,350L1359,350L1359,454L1400.1,454L1399.8,451.3ZM1455,454L1455,406.9L1466.2,407.2L1477.5,407.5L1484.4,430.8C1491.4,453.9 1491.4,454 1494.2,454C1495.7,454 1497,453.9 1497,453.7C1497,453.6 1493.9,444 1490,432.5C1486.2,421 1483,410 1483,408C1483.1,405.1 1483.7,404.1 1487,401.8C1489.2,400.3 1492,397.1 1493.2,394.8C1495.2,391 1495.5,389.1 1495.5,378.5C1495.5,367.6 1495.3,366.1 1493,362C1488,353.1 1479.8,350 1461.3,350L1449,350L1449,454L1455,454ZM1559.8,451.3L1559.5,448.5L1542.3,448.2L1525,448L1525,405L1556,405L1556,400L1525,400L1525,356L1542.3,355.8L1559.5,355.5L1559.8,352.8L1560.1,350L1519,350L1519,454L1560.1,454L1559.8,451.3ZM1584,454L1584,411.2L1596.8,410.8C1607.5,410.5 1610.2,410.1 1613.7,408.2C1621.9,403.9 1624,398.3 1624,380.3C1624,365.4 1623.1,361.7 1617.7,356.2C1613.1,351.4 1607.1,350 1591.3,350L1578,350L1578,454L1584,454ZM1676.1,452.4C1683.4,450.2 1689.2,444.4 1691.4,437.1C1693.7,429.3 1693.8,372.9 1691.5,365.2C1687.8,352.7 1675.1,345.8 1662.6,349.4C1656.1,351.3 1650.8,355.6 1647.7,361.4C1645.6,365.4 1645.5,366.4 1645.5,401C1645.5,435.5 1645.6,436.6 1647.7,440.5C1650.8,446.3 1655.1,450 1661.2,452.1C1667.8,454.4 1669.3,454.4 1676.1,452.4ZM1744.8,452.5C1756,449.2 1760.5,441.6 1760.5,426.5C1760.4,411.5 1757.2,407.5 1737.5,397.2C1725.8,391.1 1724.4,390.1 1722.2,386C1720.1,381.9 1719.9,380.5 1720.2,371.5C1720.6,360.6 1721.9,357.3 1726.6,355.2C1729.9,353.6 1744.8,353.7 1748,355.3C1751.4,357 1754,362.5 1754,368.3C1754,372.9 1754.1,373 1757.1,373L1760.3,373L1759.7,367.9C1759.3,365.1 1757.9,360.9 1756.5,358.5C1748.2,344.3 1724.5,345.3 1716.9,360.1C1714,365.8 1713.4,374.5 1715.4,381.4C1717.7,389.2 1722.5,393.7 1735.7,400.4C1752.7,408.9 1755,412 1755,426.7C1755,437.3 1753.9,441.8 1750.4,445.1C1748.1,447.2 1746.8,447.5 1738.7,447.8C1732.6,448 1728.7,447.6 1727.1,446.8C1723,444.6 1720.7,440.5 1720.2,434.5C1719.8,429.2 1719.7,429 1716.8,429L1713.8,429L1714.5,433.7C1715.8,442.7 1721.1,449.6 1728.2,451.8C1736.2,454.3 1738.3,454.4 1744.8,452.5ZM1788,454L1788,350L1782,350L1782,454L1788,454ZM1829,454L1829,356L1849,356L1849,350L1802,350L1802,356L1823,356L1823,454L1829,454ZM1896.1,452.4C1903.4,450.2 1909.2,444.4 1911.4,437.1C1913.7,429.3 1913.8,372.9 1911.5,365.2C1907.8,352.7 1895.1,345.8 1882.6,349.4C1876.1,351.3 1870.8,355.6 1867.7,361.4C1865.6,365.4 1865.5,366.4 1865.5,401C1865.5,435.5 1865.6,436.6 1867.7,440.5C1870.8,446.3 1875.1,450 1881.2,452.1C1887.8,454.4 1889.3,454.4 1896.1,452.4ZM1940,454L1940,406.9L1951.2,407.2L1962.5,407.5L1969.4,430.8C1976.4,453.9 1976.4,454 1979.2,454C1980.7,454 1982,453.9 1982,453.7C1982,453.6 1978.9,444 1975,432.5C1971.2,421 1968,410 1968,408C1968.1,405.1 1968.7,404.1 1972,401.8C1974.2,400.3 1977,397.1 1978.2,394.8C1980.2,391 1980.5,389.1 1980.5,378.5C1980.5,367.6 1980.3,366.1 1978,362C1973,353.1 1964.8,350 1946.3,350L1934,350L1934,454L1940,454ZM2023,454L2023,407.2L2032.5,379.5C2037.7,364.3 2042,351.4 2042,350.9C2042,350.4 2041.2,350 2040.2,350C2038.3,350 2038.5,349.3 2028,382.8L2022.9,399L2016.3,399L2008.4,374.8C2001.2,352.8 2000.2,350.5 1998.1,350.2C1996.1,349.9 1995.8,350.1 1996.4,351.7C1996.8,352.7 2001.6,366 2007.1,381.3L2017,409.1L2017,454L2023,454Z" style="fill-rule:nonzero;"/>
        <path d="M1455,402.2L1455,356L1468.4,356C1481.4,356 1482,356.1 1484.9,358.6C1489.3,362.3 1490.3,366.7 1489.9,381.1C1489.5,394.2 1488.8,396.3 1483.8,399.8C1482,401.1 1478.6,401.6 1468.3,401.8L1455,402.2Z" style="fill-rule:nonzero;"/>
        <path d="M1584,406.2L1584,356L1598,356C1611.5,356 1612.2,356.1 1614.5,358.4C1617.7,361.7 1618.2,365 1617.8,383.8C1617.5,399.9 1617.5,400 1614.7,402.7C1612,405.5 1611.7,405.5 1598,405.8L1584,406.2Z" style="fill-rule:nonzero;"/>
        <path d="M1658.1,446.2C1651.1,442.4 1651,441.9 1651,401C1651,367.5 1651.2,364.2 1652.8,361.1C1655.8,355.5 1660,353.8 1670.2,354.2C1677.8,354.5 1679.2,354.8 1681.5,357C1686.9,361.9 1687,363.1 1687,401.2C1687,440.6 1686.9,441.2 1680.1,445.7C1675.6,448.7 1663.3,449 1658.1,446.2Z" style="fill-rule:nonzero;"/>
        <path d="M1878.1,446.2C1871.1,442.4 1871,441.9 1871,401C1871,367.5 1871.2,364.2 1872.8,361.1C1875.8,355.5 1880,353.8 1890.2,354.2C1897.8,354.5 1899.2,354.8 1901.5,357C1906.9,361.9 1907,363.1 1907,401.2C1907,440.6 1906.9,441.2 1900.1,445.7C1895.6,448.7 1883.3,449 1878.1,446.2Z" style="fill-rule:nonzero;"/>
        <path d="M1940,402.2L1940,356L1953.4,356C1966.4,356 1967,356.1 1969.9,358.6C1974.3,362.3 1975.3,366.7 1974.9,381.1C1974.5,394.2 1973.8,396.3 1968.8,399.8C1967,401.1 1963.6,401.6 1953.3,401.8L1940,402.2Z" style="fill-rule:nonzero;"/>
        <path d="M432.5,641.9C423.3,639 388.3,630.3 374.7,627.5C366,625.7 358.6,624 358.3,623.7C358,623.4 365.2,604.5 374.2,581.8L390.7,540.5L397.7,539.9L416.9,588.2C427.5,614.8 436.4,638 436.7,639.8C437.3,643.2 437.1,643.3 432.5,641.9Z" style="fill-rule:nonzero;"/>
        <path d="M1157,297L1157,164.8L1187,193.4L1187,297L1157,297Z" style="fill-rule:nonzero;"/>
        <path d="M1095.44,91.199L1138.38,138.168C1138.73,318.341 1139.43,498.748 1137.36,677.306C1134.06,678.266 992.754,631.566 780.93,683.925C871.313,643.833 1012.4,638.242 1094.62,639.384C1094.62,602.156 1095.44,91.199 1095.44,91.199Z" style="fill:url(#_Linear2);"/>
    </g>
    <g>
        <path d="M608.3,719.8L599,712.7L599,343L617,343L617,338.8C617,333.6 614.4,318.5 612.3,311C608.3,296.8 598.7,283.9 588.4,278.7C583.9,276.4 581.1,275.5 572.5,273.5C569.8,272.9 570.2,272.6 576.7,271C586.5,268.4 591.5,265.7 598.1,259.1C606.9,250.3 612.3,237.9 615.4,219.7C616,215.8 617,212.5 617.6,212.3C618.3,212.1 619.4,215.5 620.4,221.3C624,241.1 630.7,254.6 640.7,262.5C646.8,267.2 659.3,272 665.4,272C670.9,272 669.7,272.6 660.5,274.5C634.7,279.9 622.8,298.1 618.6,338.8L618.2,343L636,343L636,713.5L627.1,720.3C622.2,724 618.1,727 617.9,727C617.7,726.9 613.3,723.7 608.3,719.8Z" style="fill:white;fill-rule:nonzero;"/>
        <path d="M472,653.9C469,653 459.3,650 450.5,647.3C437.1,643.1 434.3,641.9 433.4,639.9C432.8,638.6 423.8,616.2 413.5,590.2C403.2,564.2 394.4,543.3 394,543.7C393.6,544.1 386.2,562.2 377.6,583.9C369,605.6 361.7,623.6 361.5,624C361.2,624.5 327,619.3 326.2,618.6C326,618.4 338.8,588.4 367.6,522L376,502.6L361.4,468C353.3,449 338.4,413.9 328.2,390C318.1,366.1 309.5,345.7 309.3,344.7C308.8,343.1 310.2,343 328.3,343L347.8,343L351.7,353.3C353.9,358.9 364,385.2 374.1,411.7C384.2,438.3 392.7,460 393,460C393.3,460 394.2,458.1 395.1,455.8C395.9,453.4 406,427.1 417.6,397.3L438.5,343L477.9,343L475.1,349.8C404.9,515.3 411.7,498.9 412.3,501.4C412.6,502.6 427.5,537.5 445.4,579C463.4,620.5 477.9,654.7 477.8,655C477.6,655.4 475,654.9 472,653.9Z" style="fill:white;fill-rule:nonzero;"/>
        <path d="M813.5,637.9C813.3,637.1 811.9,630.9 810.6,624C808.4,613 773.5,439.9 759.9,372.5C757.1,358.8 754.6,346.5 754.3,345.3L753.8,343L792.8,343L793.4,345.7C793.7,347.3 797.4,367.6 801.6,391C813.6,458.3 818.4,485 828,538.5C830.8,553.9 834.7,575.5 836.6,586.5C838.6,597.5 840.3,606.7 840.5,606.9C841.1,607.5 841.6,605.1 851,552C856,524.2 861.9,491.4 864.1,479C873.3,427.5 875.3,416.8 881.7,380.8L888.4,343L907.7,343C923.1,343 927,343.3 927,344.3C927,345.4 912.3,418.8 874.8,605.1L870.6,625.7L863.6,627C856.4,628.2 819,637.3 815.8,638.5C814.7,638.9 813.8,638.7 813.5,637.9Z" style="fill:white;fill-rule:nonzero;"/>
        <path d="M1249,457L1249,359L1228,359L1228,347L1281,347L1281,359L1261,359L1261,457L1249,457Z" style="fill:white;fill-rule:nonzero;"/>
        <path d="M1290,457L1290,347L1302,347L1302,397L1328,397L1328,347L1340,347L1340,457L1328,457L1328,409L1302,409L1302,457L1290,457Z" style="fill:white;fill-rule:nonzero;"/>
        <path d="M1356,457L1356,347L1403.1,347L1402.8,352.8L1402.5,358.5L1385.3,358.8L1368,359L1368,397L1399,397L1399,408L1368,408L1368,445L1385.3,445.2L1402.5,445.5L1402.8,451.3L1403.1,457L1356,457Z" style="fill:white;fill-rule:nonzero;"/>
        <path d="M1446,457L1446,347L1461.3,347C1483,347 1490.8,349.7 1496,359C1498.4,363.2 1498.5,364.4 1498.5,378.5C1498.5,392.1 1498.3,393.9 1496.3,397.7C1494.5,401 1490.8,404.7 1486.1,407.6C1485.9,407.8 1499,448.3 1501.8,455.8C1502.1,456.7 1500.4,457 1495.3,457L1488.4,457L1481.4,433.8L1474.5,410.5L1466.2,410.2L1458,409.9L1458,457L1446,457ZM1480.8,396.8C1485.5,393.6 1486.4,391 1486.8,380.9C1487.3,369.6 1486.1,365.1 1481.9,361.5C1479.1,359.2 1478.1,359 1468.4,359L1458,359L1458,399.2L1468.3,398.8C1475.6,398.6 1479.2,398 1480.8,396.8Z" style="fill:white;fill-rule:nonzero;"/>
        <path d="M1516,457L1516,347L1563.1,347L1562.8,352.8L1562.5,358.5L1545.3,358.8L1528,359L1528,397L1559,397L1559,408L1528,408L1528,445L1545.3,445.2L1562.5,445.5L1562.8,451.3L1563.1,457L1516,457Z" style="fill:white;fill-rule:nonzero;"/>
        <path d="M1575,457L1575,347L1591.3,347C1610.3,347 1615.8,348.2 1620.7,353.2C1626.3,358.9 1627,362.1 1627,380.3C1627,401.6 1625.3,406.7 1616.7,411.2C1613.2,413.1 1610.5,413.5 1599.8,413.8L1587,414.2L1587,457L1575,457ZM1611.7,399.7C1614.4,397 1614.5,396.6 1614.8,383.8C1615.2,368.3 1614.7,364.6 1611.5,361.4C1609.2,359.2 1608.4,359 1598,359L1587,359L1587,403.2L1598,402.8C1608.4,402.5 1609.1,402.4 1611.7,399.7Z" style="fill:white;fill-rule:nonzero;"/>
        <path d="M1658.2,455.1C1652.1,453 1647.8,449.3 1644.7,443.5C1642.6,439.6 1642.5,438.5 1642.5,401C1642.5,363.3 1642.5,362.4 1644.7,358.4C1652.7,343.5 1676.5,340.2 1688.6,352.4C1695.6,359.3 1696,362 1696,401C1696,440 1695.6,442.7 1688.6,449.6C1681.6,456.7 1669.2,458.9 1658.2,455.1ZM1677.1,442.7C1683.8,438.2 1684,437.2 1684,401.2C1684,366.4 1683.8,364.8 1678.6,360.1C1675,356.7 1666,356.1 1661.1,358.8C1654.1,362.6 1654,363.5 1654,401C1654,431.6 1654.2,434.8 1655.8,437.9C1659.5,444.8 1670.3,447.3 1677.1,442.7Z" style="fill:white;fill-rule:nonzero;"/>
        <path d="M1730.5,456.3C1717.7,453.5 1712.3,446.9 1711.3,433.4L1710.7,426L1723,426L1723,430C1723,434.9 1724.9,439.8 1728,442.5C1729.8,444.1 1731.6,444.5 1737.5,444.5C1743.9,444.5 1745.2,444.2 1747.4,442.1C1750.6,439.1 1752,434.4 1752,426.7C1752,415.3 1748.8,411.4 1732.7,403.4C1714.5,394.2 1710.2,387.6 1711.2,370C1711.8,360.3 1714,354.9 1719,350.6C1726.3,344.5 1742.3,343.3 1751.7,348.2C1758.9,351.8 1762.2,357.8 1762.8,368L1763.3,376L1751,376L1751,371.3C1751,365.5 1748.4,360 1745,358.3C1741.9,356.7 1732.9,356.6 1729.6,358.2C1725.5,360 1723.7,363.8 1723.2,371.5C1722.9,377.5 1723.2,379.2 1725.2,383C1727.4,387.1 1728.8,388.1 1740.5,394.2C1761.2,405 1763.5,408.2 1763.5,426.5C1763.5,440.5 1761.9,446.1 1756.4,450.9C1751,455.7 1739,458.2 1730.5,456.3Z" style="fill:white;fill-rule:nonzero;"/>
        <path d="M1779,457L1779,347L1791,347L1791,457L1779,457Z" style="fill:white;fill-rule:nonzero;"/>
        <path d="M1820,457L1820,359L1799,359L1799,347L1852,347L1852,359L1832,359L1832,457L1820,457Z" style="fill:white;fill-rule:nonzero;"/>
        <path d="M1878.2,455.1C1872.1,453 1867.8,449.3 1864.7,443.5C1862.6,439.6 1862.5,438.5 1862.5,401C1862.5,363.3 1862.5,362.4 1864.7,358.4C1872.7,343.5 1896.5,340.2 1908.6,352.4C1915.6,359.3 1916,362 1916,401C1916,440 1915.6,442.7 1908.6,449.6C1901.6,456.7 1889.2,458.9 1878.2,455.1ZM1897.1,442.7C1903.8,438.2 1904,437.2 1904,401.2C1904,366.4 1903.8,364.8 1898.6,360.1C1895,356.7 1886,356.1 1881.1,358.8C1874.1,362.6 1874,363.5 1874,401C1874,431.6 1874.2,434.8 1875.8,437.9C1879.5,444.8 1890.3,447.3 1897.1,442.7Z" style="fill:white;fill-rule:nonzero;"/>
        <path d="M1931,457L1931,347L1946.3,347C1968,347 1975.8,349.7 1981,359C1983.4,363.2 1983.5,364.4 1983.5,378.5C1983.5,392.1 1983.3,393.9 1981.3,397.7C1979.5,401 1975.8,404.7 1971.1,407.6C1970.9,407.8 1984,448.3 1986.8,455.8C1987.1,456.7 1985.4,457 1980.3,457L1973.4,457L1966.4,433.8L1959.5,410.5L1951.2,410.2L1943,409.9L1943,457L1931,457ZM1965.8,396.8C1970.5,393.6 1971.4,391 1971.8,380.9C1972.3,369.6 1971.1,365.1 1966.9,361.5C1964.1,359.2 1963.1,359 1953.4,359L1943,359L1943,399.2L1953.3,398.8C1960.6,398.6 1964.2,398 1965.8,396.8Z" style="fill:white;fill-rule:nonzero;"/>
        <path d="M2014,457L2014,412L2002.5,379.8C1996.2,362.1 1991,347.5 1991,347.3C1991,347.1 1993.8,347 1997.2,347.2L2003.4,347.5L2011.4,371.8C2016.1,386.2 2019.6,395.6 2020.1,394.8C2020.5,394.1 2024.1,383 2028.1,370.3L2035.3,347L2048,347L2046.9,349.8C2046.3,351.3 2041.4,365.5 2035.9,381.4L2026,410.3L2026,457L2014,457Z" style="fill:white;fill-rule:nonzero;"/>
    </g>
    <defs>
        <linearGradient id="_Linear1" x1="0" y1="0" x2="1" y2="0" gradientUnits="userSpaceOnUse" gradientTransform="matrix(4.0842e-14,667,-974.565,5.96749e-14,845.75,48)"><stop offset="0" style="stop-color:rgb(203,72,200);stop-opacity:1"/><stop offset="1" style="stop-color:rgb(52,83,203);stop-opacity:1"/></linearGradient>
        <linearGradient id="_Linear2" x1="0" y1="0" x2="1" y2="0" gradientUnits="userSpaceOnUse" gradientTransform="matrix(3.55471e-14,580.529,-580.529,3.55471e-14,1078.71,121.693)"><stop offset="0" style="stop-color:rgb(128,0,255);stop-opacity:1"/><stop offset="0.13" style="stop-color:rgb(13,0,255);stop-opacity:1"/><stop offset="0.26" style="stop-color:rgb(0,169,255);stop-opacity:1"/><stop offset="0.42" style="stop-color:rgb(0,255,94);stop-opacity:1"/><stop offset="0.56" style="stop-color:rgb(161,255,0);stop-opacity:1"/><stop offset="0.69" style="stop-color:rgb(255,179,0);stop-opacity:1"/><stop offset="0.83" style="stop-color:rgb(255,3,0);stop-opacity:1"/><stop offset="1" style="stop-color:rgb(255,0,143);stop-opacity:1"/></linearGradient>
    </defs>
</svg>
